<svg viewBox="0 0 170 170"><g fill="#5268ff" fill-rule="evenodd"><path d="M145.104 24.896c33.195 33.194 33.195 87.014 0 120.208-33.194 33.195-87.014 33.195-120.208 0C-8.3 111.91-8.3 58.09 24.896 24.896 58.09-8.3 111.91-8.3 145.104 24.896zm-7.071 7.071c-29.29-29.29-76.777-29.29-106.066 0-29.29 29.29-29.29 76.777 0 106.066 29.29 29.29 76.777 29.29 106.066 0 29.29-29.29 29.29-76.777 0-106.066z"></path><path d="M82 100.843V59.007A4.006 4.006 0 0 1 86 55c2.21 0 4 1.794 4 4.007v41.777l15.956-15.956a4.003 4.003 0 0 1 5.657 0 4.004 4.004 0 0 1 0 5.657l-22.628 22.628a3.99 3.99 0 0 1-3.017 1.166 3.992 3.992 0 0 1-3.012-1.166L60.328 90.485a4.003 4.003 0 0 1 0-5.657 4.004 4.004 0 0 1 5.657 0L82 100.843z"></path></g></svg>